<svg id="Layer_1" data-name="Layer 1" xmlns="http://www.w3.org/2000/svg" viewBox="0 0 968.78 278.15"><path d="M388.88,309.38V475.27A84.75,84.75,0,0,1,304.13,560H138.24V461.46H286a4.3,4.3,0,0,0,4.3-4.3V309.38Z" transform="translate(-110.88 -281.87)"/><circle cx="84.85" cy="84.85" r="84.85"/><path d="M540.34,468c0,44.46-14.41,64.72-56.75,64.72-7.18,0-19.46-.59-26.2-2.42V497.07a163.47,163.47,0,0,0,19.11,1.15c19.19,0,22.06-12.81,22.06-27.55v-134h41.78Z" transform="translate(-110.88 -281.87)"/><path d="M752.14,434c0,53.78-32.29,100.08-95,100.08-60.64,0-92.38-44.07-92.38-99.42,0-56.23,35.06-99.42,95.08-99.42C716.32,335.28,752.14,374.89,752.14,434Zm-144.28-.18c0,37.72,16.56,66.26,50.81,66.26,37.16,0,50.32-31.12,50.32-65.56,0-36.55-15-65.28-51-65.28C623.09,369.28,607.86,396.24,607.86,433.86Z" transform="translate(-110.88 -281.87)"/><path d="M771.29,336.68h84.43c46.68,0,64.4,24.34,64.4,49.44,0,21.79-11.55,35.93-24.6,41.9,13,4.91,30.12,18.64,30.12,44,0,33.07-26,57.85-67.07,57.85H771.29Zm79.63,76.22c19.85,0,28.05-8.91,28.05-22.48,0-14.16-10.74-21.47-26.85-21.47H812.3V412.9ZM812.3,497.64H850c22.58,0,32.81-9.44,32.81-27,0-15.56-10.06-25.51-33-25.51H812.3Z" transform="translate(-110.88 -281.87)"/><path d="M944.8,336.68h134.87v34.25H985.59v47.34h88.12v34.25H985.59v77.39H944.8Z" transform="translate(-110.88 -281.87)"/></svg>